<?xml version="1.0" encoding="UTF-8" standalone="no"?>
<!-- Created with Inkscape (http://www.inkscape.org/) -->

<svg
   xmlns:dc="http://purl.org/dc/elements/1.1/"
   xmlns:cc="http://creativecommons.org/ns#"
   xmlns:rdf="http://www.w3.org/1999/02/22-rdf-syntax-ns#"
   xmlns:svg="http://www.w3.org/2000/svg"
   xmlns="http://www.w3.org/2000/svg"
   xmlns:sodipodi="http://sodipodi.sourceforge.net/DTD/sodipodi-0.dtd"
   xmlns:inkscape="http://www.inkscape.org/namespaces/inkscape"
   width="600mm"
   height="187.61873mm"
   viewBox="0 0 600 187.61873"
   version="1.1"
   id="svg1137"
   sodipodi:docname="negopricing-logo-pure-typo.svg"
   inkscape:version="0.92.1 r15371">
  <defs
     id="defs1131" />
  <sodipodi:namedview
     id="base"
     pagecolor="#ffffff"
     bordercolor="#666666"
     borderopacity="1.0"
     inkscape:pageopacity="0.0"
     inkscape:pageshadow="2"
     inkscape:zoom="0.6148099"
     inkscape:cx="544.97934"
     inkscape:cy="352.8146"
     inkscape:document-units="mm"
     inkscape:current-layer="layer1"
     showgrid="false"
     inkscape:window-width="1366"
     inkscape:window-height="697"
     inkscape:window-x="0"
     inkscape:window-y="34"
     inkscape:window-maximized="1"
     fit-margin-top="0"
     fit-margin-left="0"
     fit-margin-right="0"
     fit-margin-bottom="-1.6" />
  <metadata
     id="metadata1134">
    <rdf:RDF>
      <cc:Work
         rdf:about="">
        <dc:format>image/svg+xml</dc:format>
        <dc:type
           rdf:resource="http://purl.org/dc/dcmitype/StillImage" />
        <dc:title></dc:title>
      </cc:Work>
    </rdf:RDF>
  </metadata>
  <g
     inkscape:label="Calque 1"
     inkscape:groupmode="layer"
     id="layer1"
     transform="translate(-6.234858,-74.89281)">
    <a
       id="a1184"
       transform="rotate(8.2464577,61.848711,1498.489)">
      <path
         sodipodi:nodetypes="ccccssssccccccsccccccccc"
         inkscape:connector-curvature="0"
         id="path4487"
         d="m 26.154471,152.63431 c 1.008097,17.90406 -3.976307,-41.74524 24.376757,-43.60953 33.778847,-5.94048 2.020598,63.32964 -9.820553,57.35284 -7.343805,-8.37831 6.207546,36.88008 35.433129,36.70333 -6.032898,-5.23408 -23.486689,-14.16828 -21.839252,-29.38447 1.158979,-10.70466 3.40236,-13.4347 4.651409,-10.00661 2.013075,5.52498 6.922339,8.98682 7.760308,9.69006 0,0 -1.578243,-7.02121 -0.891062,-10.40646 0.909516,-4.4804 0.627615,4.26614 3.879313,9.84085 2.52908,4.77689 6.532571,6.1795 7.854765,5.88133 -2.851673,-2.38935 -4.30805,-8.03107 -4.792149,-11.43078 -8.4e-5,-6.7e-4 8.4e-5,-0.002 0,-0.002 0.939319,-8.16495 0.939319,-8.16495 0,0 5.911051,11.06002 20.110569,15.7976 18.664659,14.0832 -0.92982,-1.8596 -7.25486,-4.21855 -7.58363,-17.60671 -0.35311,-14.37447 -5.688506,-17.06283 -6.230238,-17.60456 -0.541733,-0.54173 10.293628,3.24968 3.792884,-0.27156 -7.158293,-5.68031 -4.946846,-7.7717 -6.063394,-9.93644 0.57696,3.89642 7.389288,6.33575 4.710051,4.51865 -3.250396,-2.16693 -0.270719,-7.85455 3.521327,-15.43877 5.88406,-15.45407 -9.214837,-25.251577 5.68716,-43.881047 C 48.64563,92.968206 24.979583,112.06181 26.154471,152.63431 Z m 51.404814,26.06134 c -72.9132288,72.55282 -36.456617,36.27641 0,0 z"
         style="fill:#ffe95b;fill-opacity:1;stroke:#e7e947;stroke-width:0;stroke-linecap:butt;stroke-linejoin:miter;stroke-miterlimit:4;stroke-dasharray:none;stroke-dashoffset:0;stroke-opacity:1" />
    </a>
    <path
       style="fill:#ffe95b;fill-opacity:1;stroke:#ffe95b;stroke-width:0.22244652;stroke-linecap:butt;stroke-linejoin:miter;stroke-miterlimit:4;stroke-dasharray:none;stroke-opacity:1"
       d="m 292.28016,195.92535 c -0.20256,6.83972 -1.68582,12.29504 -5.82132,18.81969 -2.26903,3.57985 -7.08606,8.34609 -8.84453,11.82182 -1.41458,2.20532 -2.37723,5.54633 -2.32853,7.80399 -6.22799,-2.0504 -10.2284,-7.05421 -9.31153,-12.80955 0.97841,2.31669 0.93157,4.48578 6.26151,5.45018 -1.42278,-1.87132 -3.94308,-2.61282 -2.81003,-8.41592 1.5349,6.34252 5.63818,6.34303 6.14736,4.72987 1.46031,-1.77434 1.22051,-4.16918 0.34161,-7.00546 9.11037,6.06435 12.80532,-14.33819 1.35641,-7.84694 3.42054,-6.4241 14.07722,-4.76472 15.00889,-12.54771 z"
       id="path901"
       inkscape:connector-curvature="0"
       sodipodi:nodetypes="csccccccccc" />
    <path
       style="fill:#ffe95b;fill-opacity:1;stroke:#ffe95b;stroke-width:0.22244652;stroke-linecap:butt;stroke-linejoin:miter;stroke-miterlimit:4;stroke-dasharray:none;stroke-opacity:1"
       d="m 226.70406,114.97962 c -11.01744,1.80097 -12.32179,12.69595 -0.50508,12.92727 -2.01786,0.18277 -3.76517,-0.85789 -4.83635,-2.43392 -2.18662,-3.21712 -1.55595,-8.66522 5.34143,-10.49335 z"
       id="path920"
       inkscape:connector-curvature="0"
       sodipodi:nodetypes="ccsc" />
    <path
       style="fill:#ffe95b;fill-opacity:1;stroke:#ffe95b;stroke-width:0.22244652;stroke-linecap:butt;stroke-linejoin:miter;stroke-miterlimit:4;stroke-dasharray:none;stroke-opacity:1"
       d="m 222.70054,134.10538 c -4.1107,3.53995 -14.60952,7.06339 -18.66154,3.1798 2.06396,9.76485 18.75292,2.14244 18.66154,-3.1798 z"
       id="path928"
       inkscape:connector-curvature="0"
       sodipodi:nodetypes="ccc" />
    <path
       style="fill:#ffe95b;fill-opacity:1;stroke:#ffe95b;stroke-width:0.22244652;stroke-linecap:butt;stroke-linejoin:miter;stroke-miterlimit:4;stroke-dasharray:none;stroke-opacity:1"
       d="m 209.86056,175.48823 c 0.58504,-0.84141 1.23409,-1.42394 1.1927,-2.5641 -2.13814,2.23088 -4.57864,4.34828 -8.03222,3.4887 1.36403,-1.0187 2.33845,-2.54812 3.09246,-4.34149 -3.27075,3.4126 -8.18958,4.67879 -13.09047,4.3978 14.46595,-2.14976 13.53418,-18.24286 24.33561,-24.38988 -2.89448,3.66829 -5.97499,16.35233 2.20277,9.35116 -0.70927,7.50548 -4.0863,10.26038 -9.70085,14.05781 z"
       id="path936"
       inkscape:connector-curvature="0"
       sodipodi:nodetypes="ccccccc" />
    <path
       style="fill:#65dfdf;fill-opacity:1;stroke:#65dfdf;stroke-width:0.16750205;stroke-linecap:butt;stroke-linejoin:miter;stroke-miterlimit:4;stroke-dasharray:none;stroke-opacity:1"
       d="m 307.71773,100.13939 c -0.0479,0.51051 1.76217,6.72762 1.58296,11.7207 -0.46352,4.18479 1.00943,14.82469 -1.43089,10.02774 -1.57797,-7.17891 -9.5293,-30.086846 -7.56012,-30.789072 3.28316,-1.837527 22.53266,9.641562 28.57767,12.524662 0.55938,0.26679 10.97486,5.79912 6.80357,5.66965 -4.21228,-0.29512 -23.13498,-10.185913 -27.97315,-9.15372 z"
       id="path1104"
       inkscape:connector-curvature="0"
       sodipodi:nodetypes="ccccsccc" />
    <path
       style="fill:#65dfdf;fill-opacity:1;stroke:#65dfdf;stroke-width:0.22086896;stroke-linecap:butt;stroke-linejoin:miter;stroke-miterlimit:4;stroke-dasharray:none;stroke-opacity:1"
       d="m 322.18893,233.09556 c -6.12434,2.03891 -8.69312,7.34233 -18.22496,14.86902 -5.71546,2.28152 -6.5752,-2.73784 -4.40946,-6.02496 1.96713,-2.64082 5.13846,-9.39398 6.99722,-12.57237 1.13238,-1.93644 1.57499,-4.2272 2.25445,-5.7704 0.11817,7.40814 6.68827,10.4106 13.38275,9.49871 z"
       id="path1024"
       inkscape:connector-curvature="0"
       sodipodi:nodetypes="cccscc" />
    <path
       style="fill:#65dfdf;fill-opacity:1;stroke:#65dfdf;stroke-width:0.22086896;stroke-linecap:butt;stroke-linejoin:miter;stroke-miterlimit:4;stroke-dasharray:none;stroke-opacity:1"
       d="m 309.7563,183.88837 c -0.1501,-9.44201 5.46002,-19.32947 6.19764,-28.6846 1.54963,-6.35191 5.41554,-0.37496 5.45929,2.37754 0.26742,2.0375 1.77868,3.37606 1.8029,4.89996 -0.9178,-0.85181 -2.92351,-2.61009 -3.00342,-2.90942 0.76411,5.57787 -1.97055,15.55653 -1.97055,15.55653 -1.92506,2.32489 -4.03304,1.98174 -8.48586,8.75999 z"
       id="path1044"
       inkscape:connector-curvature="0"
       sodipodi:nodetypes="ccccccc" />
    <path
       style="fill:#65dfdf;fill-opacity:1;stroke:#65dfdf;stroke-width:0.22086896;stroke-linecap:butt;stroke-linejoin:miter;stroke-miterlimit:4;stroke-dasharray:none;stroke-opacity:1"
       d="m 367.42682,184.73611 c -1.47591,6.4654 -2.73675,11.817 -5.53518,19.4813 10.29197,-4.58675 15.81428,-14.16007 21.66227,-22.78475 4.59748,-4.70925 -1.64028,-4.73619 -6.36126,-1.28007 -2.5537,3.68806 -5.5355,4.63246 -9.76583,4.58352 z"
       id="path1100"
       inkscape:connector-curvature="0"
       sodipodi:nodetypes="ccccc" />
    <path
       style="fill:#65dfdf;fill-opacity:1;stroke:#65dfdf;stroke-width:0.22086896;stroke-linecap:butt;stroke-linejoin:miter;stroke-miterlimit:4;stroke-dasharray:none;stroke-opacity:1"
       d="m 313.00938,106.18701 c 29.45773,26.6207 22.04183,64.89637 12.6301,58.16816 5.14244,5.57107 -6.42268,3.76904 -19.48757,26.81686 -6.72738,14.09098 -2.70799,25.43059 2.65427,32.42482 5.86631,9.1073 20.65397,9.44558 29.98373,4.78627 6.50879,-3.12367 15.69727,-13.01662 18.18804,-18.11809 -15.16811,14.16377 -22.76066,-5.82024 -16.36592,-16.51 3.81278,-8.23093 8.06516,-14.0543 10.76589,-20.20481 11.99752,-35.57632 -15.70661,-58.75032 -38.36854,-67.36321 z"
       id="path1010"
       inkscape:connector-curvature="0"
       sodipodi:nodetypes="ccccccccc" />
    <path
       style="fill:#ffe95b;fill-opacity:1;stroke:#ffe95b;stroke-width:0.26458332px;stroke-linecap:butt;stroke-linejoin:miter;stroke-opacity:1"
       d="m 222.88694,173.6476 c -2.09461,6.66649 11.26248,51.41029 52.39884,60.72325 -35.50623,-3.04722 -60.93206,-53.47731 -52.39884,-60.72325 z"
       id="path4912"
       inkscape:connector-curvature="0"
       sodipodi:nodetypes="ccc" />
    <path
       style="fill:#65dfdf;fill-opacity:1;stroke:#65dfdf;stroke-width:0.27446032px;stroke-linecap:butt;stroke-linejoin:miter;stroke-opacity:1"
       d="m 355.89932,147.41443 c 1.41185,3.25184 18.4673,30.45679 5.99232,56.80298 14.72554,-12.21781 2.95744,-43.85298 -5.99232,-56.80298 z"
       id="path4914"
       inkscape:connector-curvature="0"
       sodipodi:nodetypes="ccc" />
    <path
       style="fill:#ffffff;fill-opacity:1;stroke:#ffffff;stroke-width:0.26458332px;stroke-linecap:butt;stroke-linejoin:miter;stroke-opacity:1"
       d="m 277.11084,118.96908 c -4.55036,9.91578 2.20536,10.33463 0,0 z"
       id="path5459"
       inkscape:connector-curvature="0" />
    <path
       style="fill:#ffffff;fill-opacity:1;stroke:#ffffff;stroke-width:0.26458332px;stroke-linecap:butt;stroke-linejoin:miter;stroke-opacity:1"
       d="m 329.91039,226.17233 c 10.89417,0.58772 8.80088,-5.84915 0,0 z"
       id="path5459-3"
       inkscape:connector-curvature="0" />
    <path
       style="fill:#000000;fill-opacity:1;stroke:#ffffff;stroke-width:0.05291667;stroke-miterlimit:4;stroke-dasharray:none;stroke-opacity:1"
       id="path5517"
       sodipodi:type="arc"
       sodipodi:cx="171.92476"
       sodipodi:cy="264.07825"
       sodipodi:rx="15.707768"
       sodipodi:ry="16.998817"
       sodipodi:start="0"
       sodipodi:end="0.00040114787"
       d="m 187.63253,264.07825 a 15.707768,16.998817 0 0 1 0,0.007 l -15.70777,-0.007 z" />
    <path
       style="fill:#ececec;fill-opacity:1;stroke:#ffffff;stroke-width:0.0296503;stroke-miterlimit:4;stroke-dasharray:none;stroke-opacity:1"
       id="path5521"
       sodipodi:type="arc"
       sodipodi:cx="294.00122"
       sodipodi:cy="168.67325"
       sodipodi:rx="12.330302"
       sodipodi:ry="10.38743"
       sodipodi:start="0"
       sodipodi:end="6.2327176"
       d="m 306.33152,168.67325 a 12.330302,10.38743 0 0 1 -12.17473,10.3866 12.330302,10.38743 0 0 1 -12.48195,-10.12451 12.330302,10.38743 0 0 1 11.85978,-10.64208 12.330302,10.38743 0 0 1 12.7812,9.85598"
       sodipodi:open="true" />
    <path
       style="fill:#ffffff;fill-opacity:1;stroke:#ffffff;stroke-width:0.04543725;stroke-miterlimit:4;stroke-dasharray:none;stroke-opacity:1"
       id="path5523"
       sodipodi:type="arc"
       sodipodi:cx="291.66034"
       sodipodi:cy="168.04288"
       sodipodi:rx="4.763504"
       sodipodi:ry="6.4210138"
       sodipodi:start="0"
       sodipodi:end="6.2327104"
       sodipodi:open="true"
       d="m 296.42384,168.04288 a 4.763504,6.4210138 0 0 1 -4.70339,6.4205 4.763504,6.4210138 0 0 1 -4.8221,-6.25847 4.763504,6.4210138 0 0 1 4.5817,-6.57845 4.763504,6.4210138 0 0 1 4.93773,6.09245"
       inkscape:transform-center-x="-41.382941"
       inkscape:transform-center-y="121.54066" />
  </g>
</svg>
